<svg width="25" height="24" viewBox="0 0 25 24" fill="none" xmlns="http://www.w3.org/2000/svg">
<path d="M12.5986 15C14.2555 15 15.5986 13.6569 15.5986 12C15.5986 10.3431 14.2555 9 12.5986 9C10.9418 9 9.59863 10.3431 9.59863 12C9.59863 13.6569 10.9418 15 12.5986 15Z" fill="#999999"/>
<path fill-rule="evenodd" clip-rule="evenodd" d="M1.92204 11.4467C3.4093 6.97571 7.62654 3.75 12.5992 3.75C17.5694 3.75 21.7851 6.97271 23.2742 11.4405C23.3945 11.8015 23.3946 12.1922 23.2745 12.5533C21.7873 17.0243 17.57 20.25 12.5974 20.25C7.62711 20.25 3.41147 17.0273 1.92237 12.5595C1.80203 12.1985 1.80192 11.8078 1.92204 11.4467ZM17.8486 12C17.8486 14.8995 15.4981 17.25 12.5986 17.25C9.69914 17.25 7.34863 14.8995 7.34863 12C7.34863 9.1005 9.69914 6.75 12.5986 6.75C15.4981 6.75 17.8486 9.1005 17.8486 12Z" fill="#999999"/>
</svg>
