<svg width="29" height="28" viewBox="0 0 29 28" fill="none" xmlns="http://www.w3.org/2000/svg">
<path d="M8.238 11.959C9.17874 11.959 10.0276 11.4388 10.6081 10.6986C11.5101 9.54846 12.647 8.59128 13.9465 7.89923C14.789 7.45055 15.52 6.78398 15.8745 5.89773C16.1226 5.2776 16.25 4.61583 16.25 3.94793V3.20898C16.25 2.72574 16.6418 2.33398 17.125 2.33398C18.5747 2.33398 19.75 3.50924 19.75 4.95898C19.75 6.30255 19.4472 7.57539 18.9061 8.71297C18.5962 9.36437 19.0309 10.209 19.7522 10.209M19.7522 10.209H23.399C24.5968 10.209 25.6689 11.0186 25.7957 12.2097C25.8481 12.7022 25.875 13.2025 25.875 13.709C25.875 17.0312 24.7178 20.0832 22.7845 22.4837C22.3323 23.0452 21.6332 23.334 20.9123 23.334H16.227C15.6627 23.334 15.1021 23.243 14.5668 23.0646L10.9332 21.8534C10.3979 21.675 9.83732 21.584 9.27304 21.584H7.38824M19.7522 10.209H17.125M7.38824 21.584C7.48485 21.8227 7.58999 22.057 7.70327 22.2866C7.93326 22.7527 7.61223 23.334 7.09245 23.334H6.03337C4.99654 23.334 4.0349 22.7296 3.73232 21.7379C3.33743 20.4437 3.125 19.0699 3.125 17.6465C3.125 15.8353 3.46894 14.1044 4.09507 12.5156C4.45097 11.6125 5.36189 11.084 6.33258 11.084H7.5608C8.11138 11.084 8.43019 11.7325 8.14435 12.2031C7.1802 13.7904 6.625 15.6536 6.625 17.6465C6.625 19.0389 6.89604 20.368 7.38824 21.584Z" stroke="white" stroke-width="2" stroke-linecap="round" stroke-linejoin="round"/>
</svg>
