<svg width="29" height="28" viewBox="0 0 29 28" fill="none" xmlns="http://www.w3.org/2000/svg">
<path d="M22.7997 6.57596C26.9002 10.6765 26.9002 17.3247 22.7997 21.4252M19.7064 9.66965C22.0984 12.0616 22.0984 15.9397 19.7064 18.3317M8.375 9.62565L13.8813 4.11936C14.4325 3.56814 15.375 3.95854 15.375 4.73808V23.2632C15.375 24.0427 14.4325 24.4331 13.8813 23.8819L8.375 18.3756H5.76056C4.73466 18.3756 3.77356 17.7848 3.5011 16.7957C3.25595 15.9058 3.125 14.9685 3.125 14.0006C3.125 13.0328 3.25595 12.0955 3.5011 11.2056C3.77356 10.2165 4.73466 9.62565 5.76056 9.62565H8.375Z" stroke="white" stroke-width="2" stroke-linecap="round" stroke-linejoin="round"/>
</svg>
